ffmpeg started on 2016-12-04 at 20:07:02
Report written to "Output/x264/results/ffmpeg/crowd_run_2160p50veryfast500k.log"
Command line:
Tools/ffmpeg/ffmpeg -benchmark -y -i Input/y4m/crowd_run_2160p50.y4m -c:v libx264 -preset veryfast -b:v 500k -an Output/x264/encoded/crowd_run_2160p50veryfast500k.mkv
ffmpeg version N-82227-gdb23fde Copyright (c) 2000-2016 the FFmpeg developers
  built with gcc 5.4.0 (Ubuntu 5.4.0-6ubuntu1~16.04.2) 20160609
  configuration: --prefix=/home/jaroslav/ffmpeg_build --pkg-config-flags=--static --extra-cflags=-I/home/jaroslav/ffmpeg_build/include --extra-ldflags=-L/home/jaroslav/ffmpeg_build/lib --bindir=/home/jaroslav/bin --enable-gpl --enable-libass --enable-libfdk-aac --enable-libfreetype --enable-libmp3lame --enable-libopus --enable-libtheora --enable-libvorbis --enable-libvpx --enable-libx264 --enable-libx265 --enable-nvenc --enable-libmfx --enable-libxvid --enable-libgsm --enable-libopencore-amrnb --enable-version3 --enable-nonfree
  libavutil      55. 35.100 / 55. 35.100
  libavcodec     57. 66.101 / 57. 66.101
  libavformat    57. 57.100 / 57. 57.100
  libavdevice    57.  2.100 / 57.  2.100
  libavfilter     6. 66.100 /  6. 66.100
  libswscale      4.  3.100 /  4.  3.100
  libswresample   2.  4.100 /  2.  4.100
  libpostproc    54.  2.100 / 54.  2.100
Input #0, yuv4mpegpipe, from 'Input/y4m/crowd_run_2160p50.y4m':
  Duration: 00:00:10.00, start: 0.000000, bitrate: 4976642 kb/s
    Stream #0:0: Video: rawvideo (I420 / 0x30323449), yuv420p(progressive), 3840x2160, SAR 1:1 DAR 16:9, 50 fps, 50 tbr, 50 tbn, 50 tbc
[libx264 @ 0x3adc1c0] using SAR=1/1
[libx264 @ 0x3adc1c0] using cpu capabilities: MMX2 SSE2Fast SSSE3 SSE4.2 AVX FMA3 AVX2 LZCNT BMI2
[libx264 @ 0x3adc1c0] profile High, level 5.2
[libx264 @ 0x3adc1c0] 264 - core 148 - H.264/MPEG-4 AVC codec - Copyleft 2003-2016 - http://www.videolan.org/x264.html - options: cabac=1 ref=1 deblock=1:0:0 analyse=0x3:0x113 me=hex subme=2 psy=1 psy_rd=1.00:0.00 mixed_ref=0 me_range=16 chroma_me=1 trellis=0 8x8dct=1 cqm=0 deadzone=21,11 fast_pskip=1 chroma_qp_offset=0 threads=6 lookahead_threads=2 sliced_threads=0 nr=0 decimate=1 interlaced=0 bluray_compat=0 constrained_intra=0 bframes=3 b_pyramid=2 b_adapt=1 b_bias=0 direct=1 weightb=1 open_gop=0 weightp=1 keyint=250 keyint_min=25 scenecut=40 intra_refresh=0 rc_lookahead=10 rc=abr mbtree=1 bitrate=500 ratetol=1.0 qcomp=0.60 qpmin=0 qpmax=69 qpstep=4 ip_ratio=1.40 aq=1:1.00
Output #0, matroska, to 'Output/x264/encoded/crowd_run_2160p50veryfast500k.mkv':
  Metadata:
    encoder         : Lavf57.57.100
    Stream #0:0: Video: h264 (libx264) (H264 / 0x34363248), yuv420p, 3840x2160 [SAR 1:1 DAR 16:9], q=-1--1, 500 kb/s, 50 fps, 1k tbn, 50 tbc
    Metadata:
      encoder         : Lavc57.66.101 libx264
    Side data:
      cpb: bitrate max/min/avg: 0/0/500000 buffer size: 0 vbv_delay: -1
Stream mapping:
  Stream #0:0 -> #0:0 (rawvideo (native) -> h264 (libx264))
Press [q] to stop, [?] for help
frame=   12 fps=0.0 q=0.0 size=       0kB time=00:00:00.00 bitrate=N/A speed=   0x    frame=   18 fps= 13 q=0.0 size=       0kB time=00:00:00.00 bitrate=N/A speed=   0x    frame=   33 fps= 18 q=69.0 size=       1kB time=00:00:00.20 bitrate=  29.2kbits/s speed=0.108x    frame=   48 fps= 20 q=69.0 size=       1kB time=00:00:00.50 bitrate=  11.7kbits/s speed=0.211x    frame=   62 fps= 20 q=69.0 size=       1kB time=00:00:00.78 bitrate=   7.5kbits/s speed=0.247x    frame=   78 fps= 21 q=69.0 size=       1kB time=00:00:01.10 bitrate=   5.3kbits/s speed=0.298x    frame=   84 fps= 20 q=68.0 size=       1kB time=00:00:01.22 bitrate=   4.8kbits/s speed=0.29x    frame=   90 fps= 19 q=68.0 size=       1kB time=00:00:01.34 bitrate=   4.4kbits/s speed=0.283x    frame=  106 fps= 20 q=67.0 size=       1kB time=00:00:01.66 bitrate=   3.5kbits/s speed=0.316x    frame=  118 fps= 20 q=67.0 size=       1kB time=00:00:01.90 bitrate=   3.1kbits/s speed=0.318x    frame=  126 fps= 19 q=67.0 size=       1kB time=00:00:02.06 bitrate=   2.8kbits/s speed=0.314x    frame=  132 fps= 18 q=67.0 size=       1kB time=00:00:02.18 bitrate=   2.7kbits/s speed=0.303x    frame=  142 fps= 18 q=67.0 size=       1kB time=00:00:02.38 bitrate=   2.5kbits/s speed=0.308x    frame=  148 fps= 18 q=67.0 size=       1kB time=00:00:02.50 bitrate=   2.3kbits/s speed=0.303x    frame=  154 fps= 18 q=67.0 size=       1kB time=00:00:02.62 bitrate=   2.2kbits/s speed=0.299x    frame=  170 fps= 18 q=67.0 size=       1kB time=00:00:02.94 bitrate=   2.0kbits/s speed=0.317x    frame=  186 fps= 19 q=67.0 size=       1kB time=00:00:03.26 bitrate=   1.8kbits/s speed=0.332x    frame=  190 fps= 18 q=67.0 size=       1kB time=00:00:03.34 bitrate=   1.8kbits/s speed=0.315x    frame=  202 fps= 18 q=67.0 size=       1kB time=00:00:03.58 bitrate=   1.6kbits/s speed=0.316x    frame=  206 fps= 17 q=67.0 size=       1kB time=00:00:03.66 bitrate=   1.6kbits/s speed=0.309x    frame=  207 fps= 16 q=67.0 size=       1kB time=00:00:03.68 bitrate=   1.6kbits/s speed=0.287x    frame=  212 fps= 16 q=67.0 size=       1kB time=00:00:03.78 bitrate=   1.6kbits/s speed=0.284x    frame=  214 fps= 15 q=67.0 size=       1kB time=00:00:03.82 bitrate=   1.5kbits/s speed=0.271x    frame=  216 fps= 15 q=67.0 size=       1kB time=00:00:03.86 bitrate=   1.5kbits/s speed=0.264x    frame=  217 fps= 14 q=67.0 size=       1kB time=00:00:03.88 bitrate=   1.5kbits/s speed=0.255x    frame=  221 fps= 14 q=67.0 size=       1kB time=00:00:03.96 bitrate=   1.5kbits/s speed=0.251x    frame=  223 fps= 14 q=67.0 size=       1kB time=00:00:04.00 bitrate=   1.5kbits/s speed=0.244x    frame=  226 fps= 13 q=67.0 size=       1kB time=00:00:04.06 bitrate=   1.4kbits/s speed=0.235x    frame=  227 fps= 13 q=67.0 size=       1kB time=00:00:04.08 bitrate=   1.4kbits/s speed=0.227x    frame=  229 fps= 12 q=67.0 size=       1kB time=00:00:04.12 bitrate=   1.4kbits/s speed=0.217x    frame=  231 fps= 12 q=67.0 size=       1kB time=00:00:04.16 bitrate=   1.4kbits/s speed=0.211x    frame=  232 fps= 11 q=67.0 size=       1kB time=00:00:04.18 bitrate=   1.4kbits/s speed=0.205x    frame=  233 fps= 11 q=67.0 size=       1kB time=00:00:04.20 bitrate=   1.4kbits/s speed=0.198x    frame=  239 fps= 11 q=67.0 size=       1kB time=00:00:04.32 bitrate=   1.4kbits/s speed=0.196x    frame=  241 fps= 11 q=67.0 size=       1kB time=00:00:04.36 bitrate=   1.3kbits/s speed=0.193x    frame=  245 fps= 11 q=67.0 size=       1kB time=00:00:04.44 bitrate=   1.3kbits/s speed=0.192x    frame=  246 fps= 10 q=67.0 size=       1kB time=00:00:04.46 bitrate=   1.3kbits/s speed=0.188x    frame=  249 fps= 10 q=67.0 size=       1kB time=00:00:04.52 bitrate=   1.3kbits/s speed=0.185x    frame=  251 fps=9.9 q=67.0 size=       1kB time=00:00:04.56 bitrate=   1.3kbits/s speed=0.181x    frame=  253 fps=9.7 q=67.0 size=       1kB time=00:00:04.60 bitrate=   1.3kbits/s speed=0.177x    frame=  254 fps=9.6 q=67.0 size=       1kB time=00:00:04.62 bitrate=   1.3kbits/s speed=0.174x    frame=  256 fps=9.4 q=67.0 size=       1kB time=00:00:04.66 bitrate=   1.3kbits/s speed=0.172x    frame=  258 fps=9.3 q=67.0 size=       1kB time=00:00:04.70 bitrate=   1.2kbits/s speed=0.17x    frame=  259 fps=9.2 q=67.0 size=       1kB time=00:00:04.72 bitrate=   1.2kbits/s speed=0.167x    frame=  265 fps=9.2 q=67.0 size=       1kB time=00:00:04.84 bitrate=   1.2kbits/s speed=0.169x    frame=  269 fps=9.0 q=67.0 size=       1kB time=00:00:04.92 bitrate=   1.2kbits/s speed=0.164x    frame=  270 fps=8.8 q=67.0 size=       1kB time=00:00:04.94 bitrate=   1.2kbits/s speed=0.162x    frame=  276 fps=8.7 q=68.0 size=     334kB time=00:00:05.06 bitrate= 540.0kbits/s speed=0.16x    frame=  282 fps=8.8 q=68.0 size=     334kB time=00:00:05.18 bitrate= 527.5kbits/s speed=0.161x    frame=  297 fps=9.1 q=68.0 size=     334kB time=00:00:05.48 bitrate= 498.6kbits/s speed=0.168x    frame=  308 fps=9.2 q=67.0 size=     334kB time=00:00:05.70 bitrate= 479.4kbits/s speed=0.171x    frame=  324 fps=9.6 q=67.0 size=     334kB time=00:00:06.02 bitrate= 453.9kbits/s speed=0.178x    frame=  339 fps=9.9 q=67.0 size=     334kB time=00:00:06.32 bitrate= 432.4kbits/s speed=0.184x    frame=  355 fps= 10 q=67.0 size=     334kB time=00:00:06.64 bitrate= 411.5kbits/s speed=0.19x    frame=  371 fps= 10 q=67.0 size=     334kB time=00:00:06.96 bitrate= 392.6kbits/s speed=0.197x    frame=  387 fps= 11 q=67.0 size=     334kB time=00:00:07.28 bitrate= 375.4kbits/s speed=0.203x    frame=  403 fps= 11 q=67.0 size=     334kB time=00:00:07.60 bitrate= 359.6kbits/s speed=0.209x    frame=  409 fps= 11 q=67.0 size=     334kB time=00:00:07.72 bitrate= 354.0kbits/s speed=0.209x    frame=  425 fps= 11 q=67.0 size=     334kB time=00:00:08.04 bitrate= 339.9kbits/s speed=0.215x    frame=  440 fps= 12 q=67.0 size=     334kB time=00:00:08.34 bitrate= 327.7kbits/s speed=0.22x    frame=  456 fps= 12 q=67.0 size=     334kB time=00:00:08.66 bitrate= 315.6kbits/s speed=0.225x    frame=  472 fps= 12 q=67.0 size=     334kB time=00:00:08.98 bitrate= 304.3kbits/s speed=0.23x    frame=  488 fps= 12 q=67.0 size=     334kB time=00:00:09.30 bitrate= 293.8kbits/s speed=0.235x    frame=  500 fps= 12 q=-1.0 Lsize=     643kB time=00:00:09.94 bitrate= 529.9kbits/s speed=0.247x    
video:639kB audio:0kB subtitle:0kB other streams:0kB global headers:0kB muxing overhead: 0.660653%
bench: utime=48.904s
bench: maxrss=1082508kB
[libx264 @ 0x3adc1c0] frame I:2     Avg QP:51.00  size: 39514
[libx264 @ 0x3adc1c0] frame P:126   Avg QP:51.00  size:  2668
[libx264 @ 0x3adc1c0] frame B:372   Avg QP:51.00  size:   641
[libx264 @ 0x3adc1c0] consecutive B-frames:  0.8%  0.0%  0.0% 99.2%
[libx264 @ 0x3adc1c0] mb I  I16..4: 75.1% 24.9%  0.0%
[libx264 @ 0x3adc1c0] mb P  I16..4:  0.8%  0.5%  0.0%  P16..4:  1.8%  0.3%  0.1%  0.0%  0.0%    skip:96.7%
[libx264 @ 0x3adc1c0] mb B  I16..4:  0.0%  0.0%  0.0%  B16..8:  0.4%  0.0%  0.0%  direct: 0.1%  skip:99.5%  L0:55.3% L1:44.6% BI: 0.0%
[libx264 @ 0x3adc1c0] final ratefactor: 58.58
[libx264 @ 0x3adc1c0] 8x8 transform intra:29.9% inter:88.4%
[libx264 @ 0x3adc1c0] coded y,uvDC,uvAC intra: 7.6% 21.4% 0.0% inter: 0.0% 0.1% 0.0%
[libx264 @ 0x3adc1c0] i16 v,h,dc,p: 77% 17%  6%  1%
[libx264 @ 0x3adc1c0] i8 v,h,dc,ddl,ddr,vr,hd,vl,hu: 11% 12% 53%  6%  3%  3%  3%  4%  6%
[libx264 @ 0x3adc1c0] i8c dc,h,v,p: 100%  0%  0%  0%
[libx264 @ 0x3adc1c0] Weighted P-Frames: Y:1.6% UV:0.0%
[libx264 @ 0x3adc1c0] kb/s:522.81
